# xmcd
# 
# Track frame offsets:
#     150
#     12888
#     25924
#     39064
#     52419
#     64201
#     76455
#     87981
#     100871
#     111844
#     126315
#     138370
#     150960
#     164483
#     177991
#     188558
#     199462
#     214197
#     226909
#     238957
#     252069
#     266316
#     279953
#     292393
#     305553
# 
# Disc length: 4236
# 
# Revision: 0
# Processed by: cddbd v1.5.2PL0 Copyright (c) Steve Scherf et al.
# Submitted via: BonkEnc v1.0.8
# 
DISCID=67108a19
DTITLE=B.B. King - Best Of B.B.King 1949-1956 CD-1
DYEAR=0
DGENRE=Blues
TTITLE0=Every Day I Have The Blues (B.B. King Theme Tune)
TTITLE1=Bad Luck
TTITLE2=On My Word Of Honour
TTITLE3=Crying Won't Help You
TTITLE4=Dark Is The Night (Part 1)
TTITLE5=Dark Is The Night (Part 2)
TTITLE6=Did You Ever Love A Woman
TTITLE7=I'm Cracking Up Over You
TTITLE8=Let's Do The Boogie
TTITLE9=Sweet Little Angel
TTITLE10=Shut Your Mouth
TTITLE11=Ten Long Years
TTITLE12=Sneakin' Around
TTITLE13=You Upset Me Baby
TTITLE14=Don't You Want A Man Like Me
TTITLE15=Everything I Do Is Wrong
TTITLE16=Please Help Me
TTITLE17=Praying To The Lord
TTITLE18=The Woman I Love
TTITLE19=When My Heart Beats Like A Hammer
TTITLE20=Whole Lotta' Love
TTITLE21=Blind Love
TTITLE22=Highway Bound
TTITLE23=Neighborhood Affair
TTITLE24=Please Hurry Home
EXTD=Best of B.B. King 1949-1956
EXTT0=
EXTT1=
EXTT2=
EXTT3=
EXTT4=
EXTT5=
EXTT6=
EXTT7=
EXTT8=
EXTT9=
EXTT10=
EXTT11=
EXTT12=
EXTT13=
EXTT14=
EXTT15=
EXTT16=
EXTT17=
EXTT18=
EXTT19=
EXTT20=
EXTT21=
EXTT22=
EXTT23=
EXTT24=
PLAYORDER=
